<mxfile host="app.diagrams.net" modified="2024-04-03T00:35:13.087Z" agent="Mozilla/5.0 (Windows NT 10.0; Win64; x64) AppleWebKit/537.36 (KHTML, like Gecko) Chrome/123.0.0.0 Safari/537.36" version="24.2.1" etag="m02AWvpFBzZBJHnr-QeS" type="github">
  <diagram name="PÃ¡gina-1" id="4vIXYa6SFfBtht6YiKSe">
    <mxGraphModel>
      <root>
        <mxCell id="0" />
        <mxCell id="1" parent="0" />
      </root>
    </mxGraphModel>
  </diagram>
</mxfile>
